<?xml version="1.0" standalone="no"?>
<!DOCTYPE svg PUBLIC "-//W3C//DTD SVG 20010904//EN"
 "http://www.w3.org/TR/2001/REC-SVG-20010904/DTD/svg10.dtd">
<svg version="1.0" xmlns="http://www.w3.org/2000/svg"
 width="700.000000pt" height="700.000000pt" viewBox="0 0 700.000000 700.000000"
 preserveAspectRatio="xMidYMid meet">
<metadata>
Created by potrace 1.11, written by Peter Selinger 2001-2013
</metadata>
<g transform="translate(0.000000,700.000000) scale(0.100000,-0.100000)"
fill="#000000" stroke="none">
<path d="M3269 6886 c-2 -2 -42 -7 -89 -11 -47 -4 -94 -9 -105 -11 -11 -2 -40
-6 -65 -9 -223 -26 -568 -122 -829 -230 -92 -38 -304 -145 -406 -206 -98 -57
-287 -184 -321 -214 -6 -5 -26 -21 -44 -35 -172 -129 -449 -407 -587 -590 -98
-129 -143 -190 -143 -194 0 -3 -17 -31 -39 -63 -141 -213 -298 -553 -380 -818
-34 -112 -79 -290 -87 -348 -3 -21 -7 -46 -8 -55 -7 -43 38 -121 83 -143 42
-20 36 -20 477 -20 383 -1 424 0 458 16 47 22 80 72 100 150 151 589 592 1137
1146 1426 136 71 374 166 460 184 8 2 42 10 75 18 33 9 74 18 90 21 17 3 39 7
50 9 11 3 47 8 80 11 33 4 76 10 95 13 19 3 104 6 188 7 336 4 628 -52 922
-176 231 -98 474 -252 642 -407 l36 -34 -305 -305 c-352 -352 -358 -360 -357
-497 0 -67 5 -90 29 -139 45 -95 133 -166 225 -181 24 -4 476 -7 1005 -7 891
0 963 2 1005 18 88 34 144 83 187 166 l28 53 0 1005 0 1005 -22 46 c-29 60
-65 102 -117 138 -22 16 -43 29 -46 29 -3 0 -18 5 -33 11 -46 18 -137 19 -199
3 -32 -8 -58 -18 -58 -23 0 -5 -6 -9 -14 -9 -8 0 -135 -121 -283 -269 l-269
-269 -40 35 c-21 19 -59 53 -84 76 -65 59 -281 222 -375 282 -150 97 -396 228
-516 275 -30 12 -67 28 -84 35 -84 38 -412 138 -530 161 -88 17 -136 25 -170
30 -22 3 -49 7 -61 9 -11 2 -45 7 -75 10 -30 4 -67 9 -84 12 -34 6 -551 14
-556 9z"/>
<path d="M5879 3059 c-71 -8 -120 -43 -142 -102 -8 -23 -27 -82 -42 -132 -121
-406 -381 -799 -715 -1079 -47 -39 -97 -79 -110 -88 -14 -10 -44 -31 -68 -48
-207 -148 -558 -304 -775 -346 -10 -2 -26 -5 -35 -8 -9 -3 -33 -7 -52 -10 -19
-3 -48 -8 -65 -12 -167 -33 -514 -38 -685 -9 -14 2 -43 6 -64 10 -21 3 -48 7
-60 10 -12 3 -32 7 -46 9 -90 15 -303 82 -425 134 -209 89 -481 264 -637 410
l-27 26 304 304 c352 351 360 363 360 497 0 67 -5 89 -27 135 -53 108 -140
173 -253 187 -104 14 -1913 8 -1965 -6 -85 -23 -170 -95 -212 -180 l-23 -46
-3 -984 c-3 -1107 -6 -1048 71 -1143 30 -37 63 -63 110 -87 58 -30 75 -34 144
-34 131 -1 152 14 458 319 l262 263 28 -27 c270 -253 623 -484 965 -631 52
-23 103 -46 112 -51 10 -6 25 -10 33 -10 8 0 23 -5 33 -10 76 -44 484 -148
685 -175 27 -4 56 -8 65 -10 145 -27 644 -27 832 0 14 2 50 7 80 10 30 4 64 9
75 11 596 109 1098 335 1555 699 136 108 337 302 446 430 32 39 62 72 65 75 3
3 25 32 50 65 24 33 47 62 50 65 3 3 36 50 72 105 37 55 70 105 75 111 26 37
105 181 164 299 82 166 201 473 223 575 2 8 11 44 20 80 9 36 19 76 21 90 3
14 9 42 15 63 19 72 13 134 -15 176 -50 72 -56 73 -488 75 -210 0 -408 -2
-439 -5z"/>
</g>
</svg>
